<?xml version="1.0" encoding="UTF-8" standalone="no"?>
<svg id="Media_Markt_Logo" xmlns="http://www.w3.org/2000/svg" xml:space="preserve" viewBox="0 0 740.1 100" baseProfile="tiny" version="1.1" y="0px" x="0px" xmlns:xlink="http://www.w3.org/1999/xlink">
<title>Media Markt® Logo</title>
<path d="m694.8 92.1c-4.4-7.3-17.1-28.4-18.2-30.3 1.5-1.8 17.3-21.3 20.5-25.2l-1.4 7.6c-0.1 0.6 0 1.2 0.4 1.6s0.9 0.7 1.5 0.7h5.5c-0.6 3.6-6.6 35.4-8.3 45.6m38.6-58.6c-0.4-0.4-0.9-0.7-1.5-0.7h-11.2c0.6-3.5 3.1-16.8 3.1-16.8v-0.3c0-0.5-0.2-0.9-0.5-1.3-0.4-0.4-0.9-0.7-1.5-0.7h-11.1c-0.9 0-1.7 0.7-1.9 1.6 0 0-2.7 14.9-3.2 17.5h-2.7-1.7-1.8c-0.7 0-1.3 0.3-1.7 0.8-0.4-0.5-0.9-0.8-1.6-0.8h-9.9-2.9c-0.5 0-1.1 0.2-1.4 0.6 0 0-9 11.6-14.3 17.4 1.6-9.2 6.4-34.8 6.4-34.8v-0.3c0-0.5-0.2-0.9-0.5-1.3-0.4-0.4-0.9-0.7-1.5-0.7h-11c-0.9 0-1.7 0.7-1.9 1.6-0.3 1.5-1.8 8.7-3.2 17.7 0 0 0-0.1-0.1-0.1-0.4-0.4-0.9-0.8-1.5-0.8-4.6 0.1-9.6 2-13.3 4.4l0.2-1.4c0.1-0.6-0.1-1.2-0.4-1.6-0.4-0.4-0.9-0.6-1.5-0.6h-10c-0.9 0-1.7 0.6-1.9 1.5l-0.3 1.5-10.7 59.4c-0.1 0.6 0.1 1.1 0.5 1.5s1 0.7 1.5 0.7h4.9 4.7c0.9 0 1.7-0.6 1.9-1.5l7.3-36.9c2.4-9.3 8.5-12.1 13.9-12.9 0.3 0 1.4 0 1.6-0.2-3.7 22.4-8.1 48.8-8.1 49.3-0.1 0.6 0.1 1.1 0.4 1.6 0.4 0.4 0.9 0.7 1.5 0.7h10.8c0.8 0 1.6-0.5 1.8-1.3 0.3-1.1 3.1-16.3 4.7-25.4 4 6.2 15.7 25.9 15.7 25.9 0.4 0.6 1 0.9 1.6 0.9h12c0.2 0 0.5-0.3 0.7-0.3 0.3 0.1 0.6 0.3 0.9 0.3h12.5c0.9 0 1.7-0.7 1.9-1.6 0 0 8.4-46.3 9-49.3h12c0.9 0 1.7-0.7 1.9-1.6l1.7-9.9v-0.3c0.1-0.7 0-1.1-0.3-1.5" fill="#DF0000"/>
<path d="m605.9 66.8c-2.4 7.9-9.7 15.6-17 17.4-5.6 0.9-9.6 0.2-12.5-1.7-3-2.1-4.8-5.6-5.7-9-0.2-1.2-0.3-2.3-0.3-3.5 0-7.3 3.8-14.3 10.9-19.6 4-2.9 9.6-4 14.4-2.8 2.7 0.6 6.5 2.3 8.8 6.6 1.3 2.3 1.9 5.3 1.9 8.1 0.1 1.6 0 3.1-0.5 4.5m-280.9 0c-2.3 8-9.1 15.4-16.3 17.2-5.4 1-10.2 0.4-13.1-1.4-3-2.1-4.6-5.5-5.6-9-0.4-1.6-0.4-2.3-0.4-3.5 0-7.3 3.8-14.3 10.9-19.6 4-2.9 9.6-4 14.4-2.8 2.7 0.6 6.5 2.3 8.8 6.6 1.3 2.3 2 5.3 2 8.1 0 1.5-0.2 3-0.7 4.4m299.2-32c0-0.5-0.1-0.9-0.4-1.3-0.4-0.5-0.9-0.6-1.5-0.6h-10c-0.9 0-1.7 0.6-1.9 1.5l-0.8 3.9c-2.2-2-4.4-3.3-7.6-4.6l-1-0.4c-0.1 0-0.2-0.1-0.4-0.1-10.9-2.4-21.8 0.9-30.7 9.4-4.5 4.2-7.8 9-10 14.2l10-54.3c0.1-0.4 0-1-0.3-1.3-0.3-0.4-0.7-0.6-1.1-0.6h-13.4c-0.4 0-0.8 0.2-1.1 0.5 0 0-40.1 53.5-46.5 60.8 2.3-8.9 10.6-59.5 10.6-59.5v-0.3c0-0.3-0.1-0.8-0.3-1-0.3-0.3-0.7-0.5-1.1-0.5h-14c-0.4 0-0.8 0.2-1.1 0.6l-67.2 78.9c-1.1-11.5-6.5-24-6.5-24-8.8-18.4-28.2-24.6-39.7-14.7-0.6 0.2-1.3 0.5-1.8 0.9 8.7-12.2 28.8-11.2 41.9 4.1 0 0 6 7.3 10.2 18.2 1.1-3.8 1.8-7.8 2-11.9-7-9.6-14.9-15.3-14.9-15.3-16.4-11.3-36-7.1-41.4 6.8-0.6 0.7-1 1.5-1.4 2.3 1.5-15 19.4-24.4 38.3-17.8 0 0 9.1 3.4 18.4 11-0.1-0.6-0.3-1.2-0.4-1.8-1-4-2.5-7.8-4.3-11.3-10.8-4.7-20.3-5.6-20.3-5.6-20.3-1.4-35.5 12.9-32.3 28.2v0.9c0 0.5 0 0.9 0.1 1.3-6.8-13.9 4.1-31.6 24.1-35.6 0 0 9.3-1.7 20.8 0.1-2.9-3.1-6.2-5.9-9.9-8.2-11.5 1.4-20.1 5.4-20.1 5.4-18.3 9.1-24.4 29.2-14.1 40.8 0.3 0.7 0.7 1.3 1.2 1.9-12.8-8.5-12.1-29.5 3.2-43.1 0 0 7.2-6.1 18-10.5-4.4-1.4-9.1-2.1-13.7-2.1-9 7-14.3 14.5-14.3 14.5-11.5 17.3-6.6 38 8.2 42.6l0.1 0.1 0.2 0.1c0.4 0.3 0.9 0.6 1.4 0.8-15.3-0.9-25-19.4-18.4-39 0 0 3.1-8.5 9.9-17.5-3.9 1-7.6 2.5-11 4.4-4.4 10.6-5.2 19.9-5.2 19.9-1.4 20.5 12.5 35.8 27.4 32.9h0.9c0.5 0 1 0 1.5-0.1-13.7 6.8-31.1-4.3-34.9-24.5 0 0-1.6-9.1 0-20.5-3.3 3.1-6.1 6.8-8.5 10.8 1.5 11.2 5.2 19.5 5.2 19.5 9 18.7 29.1 24.8 40.4 14.1h0.1l0.2-0.2c0.5-0.3 1-0.6 1.4-1-8.3 13.2-29.1 12.5-42.5-3.2 0 0-6.5-8.8-10.1-19-0.1-0.4-0.4-1-0.7-1.3-0.4-0.4-1-0.6-1.6-0.6h-10c-0.9 0-1.6 0.5-2.1 1.5 0 0-0.5 1.2-0.9 3.5-2.2-2-4.8-3.2-7.2-4.2 0 0-1.3-0.5-1.4-0.5-10.9-2.8-21.9 0.7-30.9 9.2-5.3 4.9-9 10.8-11.1 17.1 0 0-0.1 0.1-0.2 0.4l4.6-24.9c0.1-0.6-0.1-1.1-0.4-1.6-0.4-0.4-0.9-0.7-1.5-0.7h-11.1c-0.9 0-1.7 0.7-1.9 1.6l-11 61.1c-0.1 0.6 0 1.2 0.4 1.6s0.9 0.4 1.5 0.4h11.1c0.9 0 1.8-0.4 1.9-1.3l4.4-24.9c0 0.2 0.3 5.2 0.7 7.7 1.7 9.3 9.8 18.1 18.6 19.8 7.7 1.4 15.9-0.6 24-5.6-0.2 0.9-0.4 2.2-0.4 2.2v0.4c0 0.5 0.1 0.7 0.4 1 0.4 0.4 1 0.6 1.6 0.6h9.9c0.9 0 1.7-0.4 1.9-1.3l8.7-48.1c6.4 8.1 14.9 14.9 14.9 14.9 16.5 11.3 36.2 7 41.5-7 0.5-0.6 1-1.3 1.3-2.1-1.5 15-19.4 24.3-38.3 17.7 0 0-8.4-3.1-17.2-10 0.1 0.3 0.1 0.7 0.2 1 1 4.1 2.6 8 4.5 11.7 10.3 4.3 19.1 5.1 19.1 5.1 20.2 1.4 35.2-12.7 32.4-27.9 0.1-0.5 0.1-1 0.1-1.5v-0.6c6.3 13.8-4.6 31.2-24.3 35.1 0 0-8.8 1.6-19.8 0.1 2.6 2.8 5.6 5.4 8.9 7.5 11.4-1.4 19.9-5.4 19.9-5.4 17.9-8.9 24.1-28.4 14.7-40.1-0.3-0.8-0.8-1.6-1.3-2.3 12.3 8.7 11.4 29.4-3.7 42.8 0 0-7.4 6.2-18.3 10.6 4.3 1.5 8.7 2.3 13.2 2.5 9.5-7.1 15-15.1 15-15.1 11.5-17.3 6.7-37.9-8.1-42.6-0.6-0.4-1.2-0.7-1.9-1 15.4 0.8 25.1 19.4 18.5 39 0 0-3.3 9.2-10.7 18.6 0.6-0.1 1.2-0.3 1.8-0.4 3.7-1 7.3-2.4 10.6-4.1 4.6-10.8 5.4-20.4 5.4-20.4 1.4-20.2-12.1-35.3-26.7-33-0.6-0.1-1.2-0.2-1.8-0.2h-0.4c13.5-6 30.3 5.1 34.1 24.9 0 0 2.3 9.4 0.6 20.5-0.3 1.6-1 3.9-2.3 6.4-0.4 0.7-0.9 1.5-1.5 2.5 0 0 0 0.1-0.1 0.1-0.2 0.4-0.3 1-0.1 1.4 0.2 0.5 0.7 0.9 1.3 0.9h15.8c0.4 0 0.9-0.2 1.2-0.5 0 0 52-56.8 58-64.1-2.3 12-6.9 41.1-11.1 62.8v0.3c0 0.3 0.1 0.7 0.3 0.9 0.3 0.3 0.7 0.5 1.1 0.5h12.4c0.4 0 0.8-0.2 1.1-0.5 0 0 41.9-56.7 48.1-64.1-2.6 12.1-7 41.3-11.2 62.7v0.3c0 0.3 0.1 0.6 0.3 0.9 0.3 0.4 0.7 0.6 1.1 0.6h12.2c0.7 0 1.2-0.5 1.4-1.2l4.5-26.4v1.7c0 2.5-0.9 5-0.4 7.5 1.6 9.3 9.8 18.1 18.6 19.8 7.7 1.4 15.9-0.6 24-5.6-0.2 0.9-0.4 2.2-0.4 2.2v0.4c0 0.5 0.2 0.9 0.4 1.2 0.4 0.5 0.9 0.4 1.5 0.4h9.9c0.9 0 1.7-0.4 1.9-1.3l9-48.4 1.9-12.8z" fill="#DF0000"/>
<path d="m246.3 62.5c-0.1 2-0.2 2.9-0.6 4.4-2.1 8.1-9.4 15.5-16.6 17.3-5.6 1.1-10 0.4-12.8-1.5-3-2.1-4.9-5.5-5.7-9-0.3-1.4-0.3-2.4-0.3-3.5 0-7.3 4-14.3 11.1-19.7 4-2.9 9.6-4 14.4-2.8 2.7 0.6 6.1 2.5 8.6 6.6 1.2 2.2 1.9 5.1 1.9 8.2m-92.8-4.9c3-5.8 9.4-9.3 14.9-10.1 6-0.4 8.6 1 11.2 3.3 2.4 2.4 3.5 4.6 3.7 6.8-3.2 0-25.2-0.1-29.8 0m113.7-43.2c-0.4-0.5-0.9-0.7-1.5-0.7h-10c-0.9 0-1.7 0.7-1.9 1.6 0 0-3.5 17-4.6 22.6-2.2-2-4.8-3.2-7.3-4.2l-1-0.4c-0.1 0-0.2-0.1-0.4-0.1-10.9-2.4-21.8 0.9-30.7 9.4-5.3 4.9-9.1 10.8-11.2 17.1-0.2-5.3-1.7-10.5-3.5-14.3 0-0.1 0-0.1-0.1-0.1-5.2-8.8-14-13.1-25.3-12.6h-0.1c-12.5 1.6-25.1 10-31.2 22l-0.3 0.6 9.5-52.8c0.1-0.4 0-0.9-0.3-1.3s-0.7-0.6-1.1-0.6h-13c-0.4 0-0.8 0.2-1.1 0.5 0 0-40.4 53.4-46.8 60.7 1.9-9.1 10.5-59.4 10.5-59.4v-0.3c0-0.3-0.1-0.7-0.3-1-0.3-0.3-0.7-0.5-1.1-0.5h-12.6c-0.4 0-0.8 0.2-1.1 0.5l-80.3 93.9c-0.4 0.4-0.5 1-0.3 1.5s0.7 1 1.3 1h16.1c0.4 0 0.9-0.2 1.2-0.6 0 0 50.9-58.6 56.9-65.8-2.3 12-7 42.9-11.7 64.6v0.3c0 0.3 0.1 0.7 0.3 0.9 0.3 0.3 0.7 0.6 1.1 0.6h12.4c0.4 0 0.8-0.2 1.1-0.6 0 0 42.3-58.5 48.5-65.9-2.6 12.1-6.6 43.2-11.6 64.7v0.3c0 0.3 0.1 0.6 0.3 0.9 0.3 0.4 0.7 0.6 1.1 0.6h12c0.7 0 1.2-0.5 1.4-1.1l4.6-24.9c-0.1 5.3 1 10.6 3.2 14.8 4.5 7.9 12.5 12.6 22 13 13.7 0 26.8-8.4 32.6-20.8 0.3-0.6 0.2-1.3-0.1-1.9-0.4-0.6-1-0.9-1.6-0.9h-10.3c-0.6 0-1.1 0.2-1.4 0.7-4.9 5.5-10.3 8.4-16.3 8.5s-11.2-3.3-13.4-8.7c-0.1-0.2-0.2-0.7-0.2-0.7-0.3-1.1-0.6-2-0.6-2.7 0-0.2 0-0.4 0.1-0.6h46.1c0.5 0 1-0.2 1.3-0.5 0 2.5 0.2 5 0.6 7.5 1.7 9.3 9.8 18.1 18.6 19.8 7.7 1.4 15.9-0.6 24-5.6-0.2 0.9-0.4 2.2-0.4 2.2v0.4c0 0.5 0.2 0.9 0.4 1.2 0.4 0.5 0.9 0.4 1.5 0.4h9.9c0.9 0 1.7-0.4 1.9-1.3l14.6-80.3c0.1-0.6-0.1-1.1-0.4-1.6" fill="#DF0000"/>
<path d="m270.4 31h11.1c0.9 0 1.7-0.9 1.9-1.9l2.4-13.1c0.1-0.6 0-1.2-0.4-1.6s-0.9-0.7-1.5-0.7h-11.1c-0.9 0-1.7 0.7-1.9 1.7l-2.3 13c-0.1 0.6 0 1.4 0.4 1.9 0.2 0.4 0.8 0.7 1.4 0.7" fill="#DF0000"/>
<path d="m731.9 19.7h1.6c0.5 0 1.4-0.1 1.4-1 0-0.4-0.3-1-1.3-1h-1.8v2zm0 4.2h-1.6v-7.5h3.4c0.4 0 2.8 0 2.8 2.2 0 1.4-1 1.8-1.4 2l1.4 3.2h-1.7l-1.2-3h-1.8v3.1zm1.4 2c3.1 0 5.6-2.6 5.6-5.7 0-3.2-2.5-5.7-5.6-5.7s-5.6 2.5-5.6 5.7c0 3.1 2.5 5.7 5.6 5.7m0-12.7c3.7 0 6.8 3 6.8 7 0 3.8-3 6.9-6.8 6.9s-6.8-3.1-6.8-6.9c0-3.9 3-7 6.8-7" fill="#DF0000"/>
</svg>